# xmcd
# 
# Track frame offsets:
#     150
#     12420
#     22690
#     34532
#     45432
#     61242
#     78452
#     91572
#     105282
#     117127
#     127942
#     140945
#     154107
#     166732
#     176110
#     186392
#     204585
#     220471
#     235056
#     252044
#     266266
#     284046
#     301724
#     316186
#     335386
# 
# Disc length: 4664
# 
# Revision: 0
# Processed by: cddbd v1.5.2PL0 Copyright (c) Steve Scherf et al.
# Submitted via: BonkEnc v1.0.8
# 
DISCID=45123619
DTITLE=Crystal Gayle - Greatest Hits
DYEAR=2007
DGENRE=Country
TTITLE0=I've Cried The Blue Right Out Of My Eyes
TTITLE1=Wrong Road Again
TTITLE2=Beyond You
TTITLE3=Somebody Loves You
TTITLE4=Ill Get Over You
TTITLE5=River Road
TTITLE6=You Never Miss A Real Good Thing
TTITLE7=I'll Do It All Over Again
TTITLE8=Don't It Make My Brown Eyes Blue
TTITLE9=Ready For The Times To Get Better
TTITLE10=Talking In Your Sleep
TTITLE11=Why Have You Left The One You Left Me For
TTITLE12=When I Dream
TTITLE13=Your Kisses Will
TTITLE14=Your Old Cold Shoulder
TTITLE15=Half The Way
TTITLE16=It's Like We Never Said Goodbye Love
TTITLE17=If You Ever Change Your Mind
TTITLE18=Too Many Lovers
TTITLE19=You Never Gave Up On Me
TTITLE20=You And I (With Eddie Rabbitt)
TTITLE21=Til I Can Gain Control Again
TTITLE22=Sound Of Goodbye
TTITLE23=Cry
TTITLE24=He Is Beautiful To Me
EXTD=
EXTT0=
EXTT1=
EXTT2=
EXTT3=
EXTT4=
EXTT5=
EXTT6=
EXTT7=
EXTT8=
EXTT9=
EXTT10=
EXTT11=
EXTT12=
EXTT13=
EXTT14=
EXTT15=
EXTT16=
EXTT17=
EXTT18=
EXTT19=
EXTT20=
EXTT21=
EXTT22=
EXTT23=
EXTT24=
PLAYORDER=
